<svg id="visual" viewBox="0 0 1440 900" width="1440" height="900" xmlns="http://www.w3.org/2000/svg" xmlns:xlink="http://www.w3.org/1999/xlink" version="1.1"><g><g transform="translate(775 517)"><path d="M155.9 -49.4C174.8 7.4 144 81.5 92.4 116.5C40.8 151.5 -31.6 147.3 -77.8 112.5C-124 77.6 -144.1 12.1 -126.8 -42.5C-109.4 -97.2 -54.7 -141.1 6.9 -143.3C68.5 -145.5 137.1 -106.2 155.9 -49.4Z" stroke="#35a000" fill="none" stroke-width="20"></path></g><g transform="translate(51 493)"><path d="M115.7 -35.4C130.8 8.8 110.6 66.6 73 92C35.4 117.3 -19.7 110.1 -55.4 82.6C-91.1 55.2 -107.5 7.5 -95 -33.2C-82.5 -73.8 -41.3 -107.3 4.5 -108.8C50.3 -110.3 100.6 -79.7 115.7 -35.4Z" stroke="#35a000" fill="none" stroke-width="20"></path></g><g transform="translate(1212 283)"><path d="M82.6 -24.4C93.9 7.9 80.8 50.6 53.8 69.1C26.7 87.6 -14.4 82 -41.5 61.3C-68.6 40.6 -81.8 4.9 -72.5 -24.6C-63.3 -54.1 -31.7 -77.4 2 -78.1C35.7 -78.7 71.4 -56.7 82.6 -24.4Z" stroke="#35a000" fill="none" stroke-width="20"></path></g><g transform="translate(1354 844)"><path d="M82.3 -29.7C92.1 3.3 75.3 41.9 46.3 62.7C17.3 83.5 -23.8 86.5 -51.9 67.1C-79.9 47.8 -94.8 6.1 -84 -28.4C-73.2 -62.9 -36.6 -90.2 -0.2 -90.1C36.3 -90.1 72.6 -62.7 82.3 -29.7Z" stroke="#35a000" fill="none" stroke-width="20"></path></g><g transform="translate(612 29)"><path d="M149 -52.3C166.3 4.8 135 73.8 82.2 111.9C29.4 150 -44.9 157.1 -87.3 125.2C-129.6 93.2 -139.8 22.2 -120 -38.5C-100.1 -99.2 -50 -149.6 7.9 -152.1C65.8 -154.7 131.7 -109.4 149 -52.3Z" stroke="#35a000" fill="none" stroke-width="20"></path></g><g transform="translate(367 847)"><path d="M81.1 -26.5C92.5 8.6 80.3 51.2 51.3 72.8C22.3 94.4 -23.6 95 -52.8 73.6C-82 52.1 -94.6 8.7 -83 -26.7C-71.4 -62.1 -35.7 -89.4 -0.4 -89.2C34.9 -89.1 69.8 -61.5 81.1 -26.5Z" stroke="#35a000" fill="none" stroke-width="20"></path></g></g></svg>