<svg width="27.993px" height="27.993px" viewBox="-3.47 0 27.993 27.993" xmlns="http://www.w3.org/2000/svg">
  <path id="Path_6" data-name="Path 6" d="M231.518,134.265c-.006-.085-.022-.166-.03-.242,0,0-.8-6.744-.813-6.866a2.691,2.691,0,0,0-.65-1.745c-.016-.022-.04-.043-.068-.075-1.876-1.8-5.121-2.981-8.828-2.981h0c-3.709,0-6.953,1.183-8.828,2.981a.968.968,0,0,0-.069.075,2.707,2.707,0,0,0-.649,1.745c-.016.122-.812,6.866-.812,6.866-.007.076-.022.157-.031.242a20.63,20.63,0,0,0-.053,4.352c.007.038.876,6.282.884,6.336l0,0c0,.19.706.445,1.919.675a1.161,1.161,0,0,0,1.154,1.06h.8l-2.232,3.021v.636h2.756l.37-.5,2.332-3.157h4.928l2.33,3.157.37.5h2.756v-.636l-2.232-3.021h.8a1.157,1.157,0,0,0,1.152-1.06c1.206-.23,1.909-.483,1.912-.674h0s.878-6.3.885-6.341A20.5,20.5,0,0,0,231.518,134.265Zm-12.558-5.321a.8.8,0,0,1,.8-.8H222.5a.8.8,0,0,1,.8.8v5.4a.8.8,0,0,1-.8.8h-2.742a.8.8,0,0,1-.8-.8Zm-6.811,6.638.792-6.644a.906.906,0,0,1,.906-.9h2.9a.8.8,0,0,1,.8.8v6.858a.8.8,0,0,1-.8.8h-3.691A.907.907,0,0,1,212.149,135.582Zm2.451,7.482a1.47,1.47,0,1,1,1.47-1.473A1.471,1.471,0,0,1,214.6,143.064Zm13.057,0a1.47,1.47,0,1,1,1.47-1.473A1.473,1.473,0,0,1,227.657,143.064Zm1.544-6.576H225.51a.8.8,0,0,1-.8-.8v-6.858a.8.8,0,0,1,.8-.8h2.9a.9.9,0,0,1,.9.9l.791,6.644A.9.9,0,0,1,229.2,136.488Z" transform="translate(-210.598 -122.356)"/>
</svg>
